<svg width="78" height="77" version="1.1" xmlns="http://www.w3.org/2000/svg" desc="Created with imagetracer.js version 1.2.6" ><path fill="rgb(99,61,39)" stroke="rgb(99,61,39)" stroke-width="1" opacity="0.9647058823529412" d="M 62.5 10 L 65.5 12 L 67 11.5 L 66.5 14 L 62.5 10 Z " /><path fill="rgb(99,61,39)" stroke="rgb(99,61,39)" stroke-width="1" opacity="0.9647058823529412" d="M 44.5 13 L 46 13.5 L 46 24.5 L 45 24.5 L 45 14.5 L 44.5 13 Z " /><path fill="rgb(99,61,39)" stroke="rgb(99,61,39)" stroke-width="1" opacity="0.9647058823529412" d="M 50.5 21 L 51 23.5 L 50 23.5 L 50.5 21 Z " /><path fill="rgb(99,61,39)" stroke="rgb(99,61,39)" stroke-width="1" opacity="0.9647058823529412" d="M 42.5 25 L 43 29.5 L 42 29.5 L 42.5 25 Z " /><path fill="rgb(99,61,39)" stroke="rgb(99,61,39)" stroke-width="1" opacity="0.9647058823529412" d="M 46.5 27 L 47 29.5 L 46 29.5 L 46.5 27 Z " /><path fill="rgb(99,61,39)" stroke="rgb(99,61,39)" stroke-width="1" opacity="0.9647058823529412" d="M 64.5 30 L 65.5 32 L 64.5 30 Z " /><path fill="rgb(99,61,39)" stroke="rgb(99,61,39)" stroke-width="1" opacity="0.9647058823529412" d="M 68.5 30 L 69.5 32 L 68.5 30 Z " /><path fill="rgb(99,61,39)" stroke="rgb(99,61,39)" stroke-width="1" opacity="0.9647058823529412" d="M 60.5 32 L 59.5 34 L 58 33.5 L 60.5 32 Z " /><path fill="rgb(99,61,39)" stroke="rgb(99,61,39)" stroke-width="1" opacity="0.9647058823529412" d="M 53.5 33 L 52.5 35 L 53.5 33 Z " /><path fill="rgb(99,61,39)" stroke="rgb(99,61,39)" stroke-width="1" opacity="0.9647058823529412" d="M 20.5 34 L 21.5 36 Q 18.7 36.7 20.5 34 Z " /><path fill="rgb(99,61,39)" stroke="rgb(99,61,39)" stroke-width="1" opacity="0.9647058823529412" d="M 12.5 35 L 13 37.5 L 12 37.5 L 12.5 35 Z " /><path fill="rgb(99,61,39)" stroke="rgb(99,61,39)" stroke-width="1" opacity="0.9647058823529412" d="M 18.5 36 L 17.5 38 L 18.5 36 Z " /><path fill="rgb(99,61,39)" stroke="rgb(99,61,39)" stroke-width="1" opacity="0.9647058823529412" d="M 28.5 38 L 32 39.5 L 29.5 40 L 28.5 38 Z " /><path fill="rgb(99,61,39)" stroke="rgb(99,61,39)" stroke-width="1" opacity="0.9647058823529412" d="M 16.5 39 L 17 41.5 L 15 42.5 L 16.5 39 Z " /><path fill="rgb(99,61,39)" stroke="rgb(99,61,39)" stroke-width="1" opacity="0.9647058823529412" d="M 37.5 39 L 36.5 41 L 37.5 39 Z " /><path fill="rgb(99,61,39)" stroke="rgb(99,61,39)" stroke-width="1" opacity="0.9647058823529412" d="M 11.5 40 L 12 43.5 L 11 43.5 L 11.5 40 Z " /><path fill="rgb(99,61,39)" stroke="rgb(99,61,39)" stroke-width="1" opacity="0.9647058823529412" d="M 58.5 42 L 59.5 44 L 58.5 42 Z " /><path fill="rgb(99,61,39)" stroke="rgb(99,61,39)" stroke-width="1" opacity="0.9647058823529412" d="M 17.5 43 L 16.5 45 L 17.5 43 Z " /><path fill="rgb(99,61,39)" stroke="rgb(99,61,39)" stroke-width="1" opacity="0.9647058823529412" d="M 9.5 44 L 10 46.5 L 9 46.5 L 9.5 44 Z " /><path fill="rgb(99,61,39)" stroke="rgb(99,61,39)" stroke-width="1" opacity="0.9647058823529412" d="M 28.5 46 L 27.5 48 L 28.5 46 Z " /><path fill="rgb(99,61,39)" stroke="rgb(99,61,39)" stroke-width="1" opacity="0.9647058823529412" d="M 42.5 46 L 41.5 48 L 42.5 46 Z " /><path fill="rgb(99,61,39)" stroke="rgb(99,61,39)" stroke-width="1" opacity="0.9647058823529412" d="M 22.5 47 L 26 48.5 L 24.5 48 Q 21.5 48.5 22.5 47 Z " /><path fill="rgb(99,61,39)" stroke="rgb(99,61,39)" stroke-width="1" opacity="0.9647058823529412" d="M 13.5 48 L 14 57.5 L 13 57.5 L 12 51.5 L 13.5 48 Z " /><path fill="rgb(99,61,39)" stroke="rgb(99,61,39)" stroke-width="1" opacity="0.9647058823529412" d="M 17.5 49 L 18 53.5 L 17 53.5 L 17.5 49 Z " /><path fill="rgb(99,61,39)" stroke="rgb(99,61,39)" stroke-width="1" opacity="0.9647058823529412" d="M 53.5 54 L 52.5 56 L 53.5 54 Z " /><path fill="rgb(99,61,39)" stroke="rgb(99,61,39)" stroke-width="1" opacity="0.9647058823529412" d="M 39.5 58 L 40.5 60 L 39.5 58 Z " /><path fill="rgb(99,61,39)" stroke="rgb(99,61,39)" stroke-width="1" opacity="0.9647058823529412" d="M 19.5 68 L 25 68.5 L 19.5 69 L 19.5 68 Z " /><path fill="rgb(99,61,39)" stroke="rgb(99,61,39)" stroke-width="1" opacity="0.9647058823529412" d="M 11 69 L 13 69.5 L 12 70.5 L 14.5 74 L 11 69 Z " /><path fill="rgb(99,61,39)" stroke="rgb(99,61,39)" stroke-width="1" opacity="0.9647058823529412" d="M 25 72 L 28 72.5 L 25.5 74 L 25 72 Z " /><path fill="rgb(99,61,39)" stroke="rgb(99,61,39)" stroke-width="1" opacity="0.9647058823529412" d="M 39.5 73 L 40 75 L 38 74.5 L 39.5 73 Z " /><path fill="rgb(99,61,39)" stroke="rgb(99,61,39)" stroke-width="1" opacity="0.9647058823529412" d="M 26.5 76 L 33 76.5 L 26.5 77 L 26.5 76 Z " /><path fill="rgb(214,172,177)" stroke="rgb(214,172,177)" stroke-width="1" opacity="0.9686274509803922" d="M 55.5 8 L 54.5 10 L 55.5 8 Z " /><path fill="rgb(214,172,177)" stroke="rgb(214,172,177)" stroke-width="1" opacity="0.9686274509803922" d="M 67.5 9 L 66.5 11 L 67.5 9 Z " /><path fill="rgb(214,172,177)" stroke="rgb(214,172,177)" stroke-width="1" opacity="0.9686274509803922" d="M 66.5 12 L 65.5 14 L 66.5 12 Z " /><path fill="rgb(214,172,177)" stroke="rgb(214,172,177)" stroke-width="1" opacity="0.9686274509803922" d="M 22.5 27 L 25 27.5 L 22.5 28 L 22.5 27 Z " /><path fill="rgb(214,172,177)" stroke="rgb(214,172,177)" stroke-width="1" opacity="0.9686274509803922" d="M 30.5 33 L 29.5 35 L 30.5 33 Z " /><path fill="rgb(214,172,177)" stroke="rgb(214,172,177)" stroke-width="1" opacity="0.9686274509803922" d="M 58.5 43 L 59.5 45 L 58.5 43 Z " /><path fill="rgb(214,172,177)" stroke="rgb(214,172,177)" stroke-width="1" opacity="0.9686274509803922" d="M 50.5 48 L 51.5 50 L 50.5 48 Z " /><path fill="rgb(214,172,177)" stroke="rgb(214,172,177)" stroke-width="1" opacity="0.9686274509803922" d="M 54.5 54 L 55.5 56 L 54.5 54 Z " /><path fill="rgb(214,172,177)" stroke="rgb(214,172,177)" stroke-width="1" opacity="0.9686274509803922" d="M 51.5 55 L 50.5 57 L 51.5 55 Z " /><path fill="rgb(214,172,177)" stroke="rgb(214,172,177)" stroke-width="1" opacity="0.9686274509803922" d="M 38.5 58 L 40.5 61 L 38.5 58 Z " /><path fill="rgb(214,172,177)" stroke="rgb(214,172,177)" stroke-width="1" opacity="0.9686274509803922" d="M 37.5 60 L 38 62.5 L 37 62.5 L 37.5 60 Z " /><path fill="rgb(214,172,177)" stroke="rgb(214,172,177)" stroke-width="1" opacity="0.9686274509803922" d="M 39.5 66 L 40.5 68 L 39.5 66 Z " /><path fill="rgb(0,0,0)" stroke="rgb(0,0,0)" stroke-width="1" opacity="0" d="M 0 0 L 77.5 0 L 78 0.5 L 78 24.5 L 76.5 24 L 71 23.5 L 75 20.5 L 76 13.5 L 73.5 10 Q 70.1 10.9 72 5.5 Q 70.1 0.9 62.5 2 Q 61.5 6 55.5 5 L 52 8.5 L 50.5 11 L 45.5 3 L 41 17.5 L 41 32.5 L 45 39.5 L 38 45.5 Q 37 40.5 40 39.5 L 40 32.5 L 34.5 28 L 30.5 28 L 26.5 25 L 20.5 25 L 17 27.5 L 15.5 35 L 10.5 29 L 9 31.5 L 8 42.5 L 7 43.5 L 7 57.5 L 12 68 L 3 73.5 L 5.5 74 L 10.5 71 L 17 76.5 L 0 77 L 0 0 Z " /><path fill="rgb(0,0,0)" stroke="rgb(0,0,0)" stroke-width="1" opacity="0" d="M 52.5 15 L 58 22.5 L 58 24.5 L 51.5 32 L 51 30.5 L 52 29.5 L 52.5 15 Z " /><path fill="rgb(0,0,0)" stroke="rgb(0,0,0)" stroke-width="1" opacity="0" d="M 61.5 23 L 63.5 23 Q 68.3 21.7 67 25 L 59.5 27 L 61 24.5 L 61.5 23 Z " /><path fill="rgb(0,0,0)" stroke="rgb(0,0,0)" stroke-width="1" opacity="0" d="M 76.5 29 L 78 29.5 L 78 77 L 46.5 77 Q 38.6 65.4 18 66.5 L 36.5 52 L 37 55.5 Q 33 57.5 35 65.5 L 37 69 L 40.5 71 L 48.5 71 L 52 68.5 L 52.5 67 Q 53.8 69.2 58.5 68 L 63 64.5 Q 65.3 61.3 64 54.5 Q 60.5 53 63 51.5 Q 64.5 43.5 60.5 41 L 57 39.5 Q 69.2 36.7 76.5 29 Z " /><path fill="rgb(0,0,0)" stroke="rgb(0,0,0)" stroke-width="1" opacity="0" d="M 50.5 38 Q 55.3 36.7 54 40 L 46.5 43 L 50.5 38 Z " /><path fill="rgb(0,0,0)" stroke="rgb(0,0,0)" stroke-width="1" opacity="0" d="M 19.5 48 L 23.5 53 L 28 54 L 26.5 57 L 17.5 64 L 18 62.5 L 20 49.5 L 19.5 48 Z " /><path fill="rgb(230,186,195)" stroke="rgb(230,186,195)" stroke-width="1" opacity="0.996078431372549" d="M 43.5 46 L 42.5 48 L 43.5 46 Z " /><path fill="rgb(230,186,195)" stroke="rgb(230,186,195)" stroke-width="1" opacity="0.996078431372549" d="M 24.5 49 L 25.5 51 L 24.5 49 Z " /><path fill="rgb(182,184,149)" stroke="rgb(182,184,149)" stroke-width="1" opacity="0.9882352941176471" d="M 47.5 11 L 50 18.5 L 50 27.5 L 48 36.5 L 46.5 38 Q 41.4 33.6 43 22.5 L 44.5 16 L 45 27.5 L 46.5 31 L 47.5 11 Z " /><path fill="rgb(182,184,149)" stroke="rgb(182,184,149)" stroke-width="1" opacity="0.9882352941176471" d="M 66.5 27 L 70 27.5 L 58 33.5 L 61.5 34 L 68.5 31 L 68.5 32 Q 63.1 36.6 53.5 37 Q 50 35 54.5 33 L 66.5 27 Z " /><path fill="rgb(182,184,149)" stroke="rgb(182,184,149)" stroke-width="1" opacity="0.9882352941176471" d="M 13.5 37 L 17 46.5 L 17 57.5 L 14.5 66 L 10 59.5 L 10 42.5 L 11 42.5 L 12 55.5 L 13.5 58 L 14 41.5 L 13.5 37 Z " /><path fill="rgb(182,184,149)" stroke="rgb(182,184,149)" stroke-width="1" opacity="0.9882352941176471" d="M 51.5 43 L 50.5 45 L 51.5 43 Z " /><path fill="rgb(182,184,149)" stroke="rgb(182,184,149)" stroke-width="1" opacity="0.9882352941176471" d="M 47.5 59 L 48.5 61 L 47.5 59 Z " /><path fill="rgb(182,184,149)" stroke="rgb(182,184,149)" stroke-width="1" opacity="0.9882352941176471" d="M 51.5 61 L 52 63.5 L 51 63.5 L 51.5 61 Z " /><path fill="rgb(182,184,149)" stroke="rgb(182,184,149)" stroke-width="1" opacity="0.9882352941176471" d="M 16.5 69 L 26.5 69 L 39 73.5 L 37.5 74 L 36.5 73 L 19.5 71 L 20.5 73 L 34 75.5 L 23.5 76 L 18.5 75 L 12 70.5 L 16.5 69 Z " /><path fill="rgb(230,186,195)" stroke="rgb(230,186,195)" stroke-width="1" opacity="1" d="M 63.5 5 Q 68 4 69 6.5 L 70 8.5 L 65.5 10 L 63 9 L 62 6.5 L 63.5 5 Z " /><path fill="rgb(230,186,195)" stroke="rgb(230,186,195)" stroke-width="1" opacity="1" d="M 58.5 7 L 62 9.5 L 61 13 Q 65.7 12 67 15.5 Q 67.8 19.3 65.5 20 L 61.5 21 L 58 18.5 Q 57.3 14.3 60 13.5 L 57.5 13 L 55.5 14 L 54 10.5 L 58.5 7 Z " /><path fill="rgb(230,186,195)" stroke="rgb(230,186,195)" stroke-width="1" opacity="1" d="M 68.5 11 L 73 13.5 Q 74.3 18.8 71.5 20 L 69.5 21 L 69 18.5 L 70 16.5 L 67 12.5 L 68.5 11 Z " /><path fill="rgb(230,186,195)" stroke="rgb(230,186,195)" stroke-width="1" opacity="1" d="M 21.5 28 Q 27.8 26.8 29 30.5 Q 30.9 35.9 27.5 35 L 26 38 Q 29 36.8 28 40.5 L 29 42.5 L 26.5 46 L 22.5 47 L 18 43.5 L 17 39.5 L 23 35.5 L 19 34 L 19 29 L 20.5 29 L 21.5 28 Z " /><path fill="rgb(230,186,195)" stroke="rgb(230,186,195)" stroke-width="1" opacity="1" d="M 31 31 L 37 33.5 L 38 37.5 L 37 40 L 31 39 L 30 34.5 L 31 31 Z " /><path fill="rgb(230,186,195)" stroke="rgb(230,186,195)" stroke-width="1" opacity="1" d="M 30 40 L 35 42.5 L 36 45.5 L 33.5 50 L 28.5 52 L 25 49.5 L 29 48 L 31 42.5 L 30 40 Z " /><path fill="rgb(230,186,195)" stroke="rgb(230,186,195)" stroke-width="1" opacity="1" d="M 55.5 42 L 60 45.5 L 61 49.5 L 58.5 54 L 55.5 55 L 51 53 L 50 58 L 44.5 60 L 41 57.5 L 40 51.5 L 44.5 46 Q 49 45 50 47.5 L 51.5 50 L 52 45.5 Q 49.8 44.3 52.5 43 L 55.5 42 Z " /><path fill="rgb(230,186,195)" stroke="rgb(230,186,195)" stroke-width="1" opacity="1" d="M 60.5 55 L 61 61.5 L 58.5 65 L 54.5 66 Q 51.8 64.8 54 63.5 L 53 59.5 L 55 56 L 60.5 55 Z " /><path fill="rgb(230,186,195)" stroke="rgb(230,186,195)" stroke-width="1" opacity="1" d="M 38.5 59 Q 40.4 63.1 47.5 62 L 51 59.5 Q 52.5 66.5 48.5 68 L 44.5 69 L 38 64.5 L 38.5 59 Z " /><path fill="rgb(77,32,7)" stroke="rgb(77,32,7)" stroke-width="1" opacity="0.34901960784313724" d="M 62.5 2 L 68 2.5 Q 61.3 1.8 59.5 6 L 62.5 2 Z " /><path fill="rgb(77,32,7)" stroke="rgb(77,32,7)" stroke-width="1" opacity="0.34901960784313724" d="M 45.5 3 L 50.5 11 L 52 10.5 Q 53 14.3 50 13 L 45.5 5 L 44.5 7 L 44 5.5 L 45.5 3 Z " /><path fill="rgb(77,32,7)" stroke="rgb(77,32,7)" stroke-width="1" opacity="0.34901960784313724" d="M 69.5 3 Q 73 4 72 9.5 L 71 9.5 Q 71.6 4 69.5 3 Z " /><path fill="rgb(77,32,7)" stroke="rgb(77,32,7)" stroke-width="1" opacity="0.34901960784313724" d="M 55.5 5 L 58 5.5 L 52.5 9 L 55.5 5 Z " /><path fill="rgb(77,32,7)" stroke="rgb(77,32,7)" stroke-width="1" opacity="0.34901960784313724" d="M 43.5 8 L 44 10.5 L 43 10.5 L 43.5 8 Z " /><path fill="rgb(77,32,7)" stroke="rgb(77,32,7)" stroke-width="1" opacity="0.34901960784313724" d="M 73.5 10 L 74.5 12 L 73.5 10 Z " /><path fill="rgb(77,32,7)" stroke="rgb(77,32,7)" stroke-width="1" opacity="0.34901960784313724" d="M 51 14 L 56 16 Q 55.1 21.4 59 23.5 L 58 23.5 L 52.5 15 L 51.5 18 L 51 14 Z " /><path fill="rgb(77,32,7)" stroke="rgb(77,32,7)" stroke-width="1" opacity="0.34901960784313724" d="M 41.5 17 L 42 20.5 L 41 20.5 L 41.5 17 Z " /><path fill="rgb(77,32,7)" stroke="rgb(77,32,7)" stroke-width="1" opacity="0.34901960784313724" d="M 74.5 20 L 72.5 23 L 74.5 20 Z " /><path fill="rgb(77,32,7)" stroke="rgb(77,32,7)" stroke-width="1" opacity="0.34901960784313724" d="M 60.5 23 L 61 24.5 L 59 25.5 L 60.5 23 Z " /><path fill="rgb(77,32,7)" stroke="rgb(77,32,7)" stroke-width="1" opacity="0.34901960784313724" d="M 67 23 L 77 24.5 L 67 25 L 67 23 Z " /><path fill="rgb(77,32,7)" stroke="rgb(77,32,7)" stroke-width="1" opacity="0.34901960784313724" d="M 25.5 25 L 30.5 28 L 36.5 29 L 40 32.5 L 39.5 34 L 36.5 30 L 29 29 Q 30.1 26.3 27.5 27 L 25.5 25 Z " /><path fill="rgb(77,32,7)" stroke="rgb(77,32,7)" stroke-width="1" opacity="0.34901960784313724" d="M 57.5 25 L 54.5 29 L 57.5 25 Z " /><path fill="rgb(77,32,7)" stroke="rgb(77,32,7)" stroke-width="1" opacity="0.34901960784313724" d="M 63.5 25 L 66 25.5 L 57.5 29 L 58.5 27 L 63.5 25 Z " /><path fill="rgb(77,32,7)" stroke="rgb(77,32,7)" stroke-width="1" opacity="0.34901960784313724" d="M 18.5 26 L 17.5 28 L 18.5 26 Z " /><path fill="rgb(77,32,7)" stroke="rgb(77,32,7)" stroke-width="1" opacity="0.34901960784313724" d="M 51.5 27 L 52 29.5 L 51 29.5 L 51.5 27 Z " /><path fill="rgb(77,32,7)" stroke="rgb(77,32,7)" stroke-width="1" opacity="0.34901960784313724" d="M 10.5 29 L 14.5 34 L 10.5 29 Z " /><path fill="rgb(77,32,7)" stroke="rgb(77,32,7)" stroke-width="1" opacity="0.34901960784313724" d="M 75.5 29 L 74.5 31 L 75.5 29 Z " /><path fill="rgb(77,32,7)" stroke="rgb(77,32,7)" stroke-width="1" opacity="0.34901960784313724" d="M 53.5 30 L 50.5 34 L 50 32 L 53.5 30 Z " /><path fill="rgb(77,32,7)" stroke="rgb(77,32,7)" stroke-width="1" opacity="0.34901960784313724" d="M 9.5 31 L 10 33.5 L 9 33.5 L 9.5 31 Z " /><path fill="rgb(77,32,7)" stroke="rgb(77,32,7)" stroke-width="1" opacity="0.34901960784313724" d="M 72.5 31 L 70.5 34 L 68.5 35 L 69.5 33 L 72.5 31 Z " /><path fill="rgb(77,32,7)" stroke="rgb(77,32,7)" stroke-width="1" opacity="0.34901960784313724" d="M 16.5 33 L 17 36 L 15 35.5 L 16.5 33 Z " /><path fill="rgb(77,32,7)" stroke="rgb(77,32,7)" stroke-width="1" opacity="0.34901960784313724" d="M 42.5 34 L 46 39.5 L 38 46.5 L 45 38.5 Q 40.8 37.3 42.5 34 Z " /><path fill="rgb(77,32,7)" stroke="rgb(77,32,7)" stroke-width="1" opacity="0.34901960784313724" d="M 8.5 37 L 9 40.5 L 8 40.5 L 8.5 37 Z " /><path fill="rgb(77,32,7)" stroke="rgb(77,32,7)" stroke-width="1" opacity="0.34901960784313724" d="M 50.5 37 L 53 37.5 Q 47.1 38.1 45.5 43 L 50.5 37 Z " /><path fill="rgb(77,32,7)" stroke="rgb(77,32,7)" stroke-width="1" opacity="0.34901960784313724" d="M 39.5 38 L 40 39.5 L 37.5 44 L 37 41.5 L 39.5 38 Z " /><path fill="rgb(77,32,7)" stroke="rgb(77,32,7)" stroke-width="1" opacity="0.34901960784313724" d="M 54 38 L 60 38.5 L 54 40 L 54 38 Z " /><path fill="rgb(77,32,7)" stroke="rgb(77,32,7)" stroke-width="1" opacity="0.34901960784313724" d="M 51.5 40 L 53 40.5 L 48.5 44 L 51.5 40 Z " /><path fill="rgb(77,32,7)" stroke="rgb(77,32,7)" stroke-width="1" opacity="0.34901960784313724" d="M 60.5 41 L 63 45.5 L 62 45.5 L 60.5 41 Z " /><path fill="rgb(77,32,7)" stroke="rgb(77,32,7)" stroke-width="1" opacity="0.34901960784313724" d="M 7.5 43 L 8 57.5 L 7 57.5 L 7.5 43 Z " /><path fill="rgb(77,32,7)" stroke="rgb(77,32,7)" stroke-width="1" opacity="0.34901960784313724" d="M 20.5 48 L 21.5 50 L 20 49.5 L 19.5 52 L 19 49.5 L 20.5 48 Z " /><path fill="rgb(77,32,7)" stroke="rgb(77,32,7)" stroke-width="1" opacity="0.34901960784313724" d="M 37.5 50 L 38 55.5 L 35.5 59 L 35 57.5 Q 37.8 56.7 37 52.5 L 33 54.5 L 37.5 50 Z " /><path fill="rgb(77,32,7)" stroke="rgb(77,32,7)" stroke-width="1" opacity="0.34901960784313724" d="M 22.5 51 L 23.5 53 L 22.5 51 Z " /><path fill="rgb(77,32,7)" stroke="rgb(77,32,7)" stroke-width="1" opacity="0.34901960784313724" d="M 62.5 53 L 64 55.5 L 63 55.5 L 62.5 53 Z " /><path fill="rgb(77,32,7)" stroke="rgb(77,32,7)" stroke-width="1" opacity="0.34901960784313724" d="M 28 54 L 30 54.5 L 22.5 61 L 25.5 57 L 28 55.5 L 28 54 Z " /><path fill="rgb(77,32,7)" stroke="rgb(77,32,7)" stroke-width="1" opacity="0.34901960784313724" d="M 31.5 55 L 28.5 59 L 31.5 55 Z " /><path fill="rgb(77,32,7)" stroke="rgb(77,32,7)" stroke-width="1" opacity="0.34901960784313724" d="M 18.5 57 L 19 59.5 L 18 59.5 L 18.5 57 Z " /><path fill="rgb(77,32,7)" stroke="rgb(77,32,7)" stroke-width="1" opacity="0.34901960784313724" d="M 26.5 59 L 24.5 62 L 26.5 59 Z " /><path fill="rgb(77,32,7)" stroke="rgb(77,32,7)" stroke-width="1" opacity="0.34901960784313724" d="M 63.5 60 L 64 62.5 L 60.5 67 L 62 64.5 L 63.5 60 Z " /><path fill="rgb(77,32,7)" stroke="rgb(77,32,7)" stroke-width="1" opacity="0.34901960784313724" d="M 17.5 61 L 18.5 63 L 21 61.5 L 19.5 64 L 22.5 62 L 20.5 65 L 18 66.5 L 18.5 68 L 15 67.5 L 19 64.5 Q 16 63.5 17.5 61 Z " /><path fill="rgb(77,32,7)" stroke="rgb(77,32,7)" stroke-width="1" opacity="0.34901960784313724" d="M 35.5 63 L 37 66.5 L 35 65.5 L 35.5 63 Z " /><path fill="rgb(77,32,7)" stroke="rgb(77,32,7)" stroke-width="1" opacity="0.34901960784313724" d="M 10.5 64 L 13 67.5 L 10 69.5 L 15.5 76 L 9 69.5 L 10.5 68 Q 12.8 68.8 12 66.5 L 10.5 64 Z " /><path fill="rgb(77,32,7)" stroke="rgb(77,32,7)" stroke-width="1" opacity="0.34901960784313724" d="M 28.5 67 L 31 67.5 L 28.5 68 L 28.5 67 Z " /><path fill="rgb(77,32,7)" stroke="rgb(77,32,7)" stroke-width="1" opacity="0.34901960784313724" d="M 37.5 68 L 37.5 70 L 39.5 69 L 42 70.5 L 39.5 72 L 35 69.5 L 37.5 68 Z " /><path fill="rgb(77,32,7)" stroke="rgb(77,32,7)" stroke-width="1" opacity="0.34901960784313724" d="M 51.5 68 L 50.5 70 L 51.5 68 Z " /><path fill="rgb(77,32,7)" stroke="rgb(77,32,7)" stroke-width="1" opacity="0.34901960784313724" d="M 7.5 70 Q 10.5 71.5 7.5 73 L 3.5 74 L 4.5 72 L 6 72.5 L 7.5 70 Z " /><path fill="rgb(77,32,7)" stroke="rgb(77,32,7)" stroke-width="1" opacity="0.34901960784313724" d="M 41.5 72 L 45.5 77 L 41.5 72 Z " /><path fill="rgb(75,32,9)" stroke="rgb(75,32,9)" stroke-width="1" opacity="0.9607843137254902" d="M 62.5 3 Q 69.5 1.5 71 5.5 Q 69.1 10.9 72.5 10 Q 76.1 11.9 76 17.5 L 71.5 23 Q 66.8 24.3 65.5 22 L 60 23 L 57 28.5 L 58.5 29 Q 64.8 23 78 25 L 76.5 29 L 63.5 37 L 53.5 38 L 53.5 37 L 62.5 36 L 71 30.5 L 68.5 30 L 61.5 33 L 61.5 32 L 74 26.5 L 68.5 26 Q 57.6 28.6 51 35.5 L 45 42.5 L 48.5 44 Q 50.1 39.1 57.5 40 L 61 42.5 L 63 49.5 L 62 53.5 Q 64.6 54.9 64 59.5 L 59.5 67 L 54.5 68 L 52.5 67 Q 50.1 71.6 42.5 71 L 37 67.5 L 35 59.5 L 38 55.5 L 38 50.5 L 32.5 55 L 15 67.5 L 18.5 68 L 19.5 67 L 27.5 67 L 40.5 72 L 45 76.5 L 33.5 77 L 33.5 76 L 37 75.5 L 26 73.5 L 32.5 73 L 40 75 Q 41.1 72.3 38.5 73 L 30.5 69 L 19.5 68 Q 18 70.5 12.5 69 L 13.5 67 L 17 64.5 L 16 62.5 L 17 62.5 Q 16.3 64.8 18.5 64 L 30 54.5 Q 24.3 54.2 22 50.5 L 20.5 48 L 19 48.5 L 19 56.5 L 17.5 61 L 17 54.5 L 18 49.5 L 15 38.5 L 12.5 35 L 12 37.5 L 13 38.5 L 13 50.5 L 12 50.5 Q 13.9 41.6 10.5 38 L 9 44.5 L 9 58.5 L 13 65.5 L 10 63.5 L 8 58.5 L 8 41.5 L 10.5 30 L 15 36 Q 18 37.3 17 33.5 L 16 30.5 L 19.5 26 L 24.5 25 L 29 27 Q 27.6 31 34.5 29 L 39 32.5 L 40 37.5 L 37 43.5 L 38.5 47 L 48 39 L 50 31.5 L 51 21.5 L 48 10 L 46 10.5 L 47 11.5 L 47 26.5 L 46 26.5 L 46 13.5 L 44 13 L 42 29.5 L 45 36.5 L 43 35.5 Q 39.7 30.8 41 21.5 L 45.5 5 L 51 13.5 L 52 26.5 L 50 33.5 L 54 30.5 L 59 22.5 Q 55 21.1 56 16 L 52 13.5 Q 51 7 55.5 6 L 58.5 5 L 59.5 6 L 62.5 3 Z M 64 4 L 63 5 Q 60 4 61 7 L 54 8 L 53 13 L 57 15 L 58 15 L 57 19 L 63 22 L 66 21 Q 69 21 68 17 L 69 17 L 68 21 L 68 22 Q 72 22 74 19 Q 75 12 72 11 Q 68 12 70 7 Q 69 3 64 4 Z M 21 27 Q 17 29 18 35 L 20 36 L 19 36 L 16 40 L 17 44 L 23 48 L 27 47 L 29 46 L 23 50 Q 25 54 33 52 Q 38 50 36 43 L 35 40 L 37 41 L 39 38 L 38 34 L 35 30 Q 28 31 27 27 L 21 27 Z M 53 42 L 50 45 L 51 47 L 49 45 L 43 46 L 39 53 L 40 58 Q 41 60 45 60 L 45 61 L 43 61 L 39 57 L 37 58 L 37 65 L 45 70 L 49 69 L 52 66 L 55 67 L 59 66 Q 63 64 62 56 L 59 55 L 62 49 L 60 44 Q 58 41 53 42 Z " /><path fill="rgb(75,32,9)" stroke="rgb(75,32,9)" stroke-width="1" opacity="0.9607843137254902" d="M 63.5 10 L 66 11.5 L 64.5 12 L 62 11.5 L 63.5 10 Z " /><path fill="rgb(75,32,9)" stroke="rgb(75,32,9)" stroke-width="1" opacity="0.9607843137254902" d="M 27.5 36 Q 31.3 34.8 30 38.5 L 29 38.5 Q 29.8 36.3 27.5 37 L 27.5 36 Z " /><path fill="rgb(75,32,9)" stroke="rgb(75,32,9)" stroke-width="1" opacity="0.9607843137254902" d="M 29.5 41 L 30 43.5 L 29 43.5 L 29.5 41 Z " /><path fill="rgb(75,32,9)" stroke="rgb(75,32,9)" stroke-width="1" opacity="0.9607843137254902" d="M 52.5 54 L 54 58 L 51 57.5 L 53 57 L 52.5 54 Z " /><path fill="rgb(75,32,9)" stroke="rgb(75,32,9)" stroke-width="1" opacity="0.9607843137254902" d="M 52.5 62 L 53 64.5 L 52 64.5 L 52.5 62 Z " /><path fill="rgb(75,32,9)" stroke="rgb(75,32,9)" stroke-width="1" opacity="0.9607843137254902" d="M 10.5 69 L 9.5 71 L 7.5 72 L 8.5 70 L 10.5 69 Z " /><path fill="rgb(75,32,9)" stroke="rgb(75,32,9)" stroke-width="1" opacity="0.9607843137254902" d="M 22.5 72 L 25 72.5 L 22.5 73 L 22.5 72 Z " /><path fill="rgb(75,32,9)" stroke="rgb(75,32,9)" stroke-width="1" opacity="0.9607843137254902" d="M 15.5 74 Q 19 77 26 76.5 L 18.5 77 L 15.5 74 Z " /><path fill="rgb(149,122,103)" stroke="rgb(149,122,103)" stroke-width="1" opacity="0.9568627450980393" d="M 64.5 4 L 67 4.5 L 64.5 5 L 64.5 4 Z " /><path fill="rgb(149,122,103)" stroke="rgb(149,122,103)" stroke-width="1" opacity="0.9568627450980393" d="M 68.5 5 L 69.5 7 L 68.5 5 Z " /><path fill="rgb(149,122,103)" stroke="rgb(149,122,103)" stroke-width="1" opacity="0.9568627450980393" d="M 61.5 6 L 64 9.5 L 62 8.5 L 61.5 6 Z " /><path fill="rgb(149,122,103)" stroke="rgb(149,122,103)" stroke-width="1" opacity="0.9568627450980393" d="M 57.5 16 L 58 18.5 L 57 18.5 L 57.5 16 Z " /><path fill="rgb(149,122,103)" stroke="rgb(149,122,103)" stroke-width="1" opacity="0.9568627450980393" d="M 43.5 19 L 44 21.5 L 43 21.5 L 43.5 19 Z " /><path fill="rgb(149,122,103)" stroke="rgb(149,122,103)" stroke-width="1" opacity="0.9568627450980393" d="M 66.5 19 L 65.5 21 L 66.5 19 Z " /><path fill="rgb(149,122,103)" stroke="rgb(149,122,103)" stroke-width="1" opacity="0.9568627450980393" d="M 72.5 19 L 71.5 21 L 72.5 19 Z " /><path fill="rgb(149,122,103)" stroke="rgb(149,122,103)" stroke-width="1" opacity="0.9568627450980393" d="M 45.5 25 L 46 27.5 L 45 27.5 L 45.5 25 Z " /><path fill="rgb(149,122,103)" stroke="rgb(149,122,103)" stroke-width="1" opacity="0.9568627450980393" d="M 70 26 L 73 26.5 L 70 28 L 70 26 Z " /><path fill="rgb(149,122,103)" stroke="rgb(149,122,103)" stroke-width="1" opacity="0.9568627450980393" d="M 27.5 28 L 28.5 30 L 27.5 28 Z " /><path fill="rgb(149,122,103)" stroke="rgb(149,122,103)" stroke-width="1" opacity="0.9568627450980393" d="M 30.5 30 L 31 32.5 L 29 33.5 L 30.5 30 Z " /><path fill="rgb(149,122,103)" stroke="rgb(149,122,103)" stroke-width="1" opacity="0.9568627450980393" d="M 35.5 31 L 36.5 33 L 35.5 31 Z " /><path fill="rgb(149,122,103)" stroke="rgb(149,122,103)" stroke-width="1" opacity="0.9568627450980393" d="M 66.5 31 L 67.5 33 L 66.5 31 Z " /><path fill="rgb(149,122,103)" stroke="rgb(149,122,103)" stroke-width="1" opacity="0.9568627450980393" d="M 59.5 32 L 62 33.5 L 60.5 34 L 59.5 32 Z " /><path fill="rgb(149,122,103)" stroke="rgb(149,122,103)" stroke-width="1" opacity="0.9568627450980393" d="M 63.5 32 L 66 33.5 L 64.5 33 L 63.5 32 Z " /><path fill="rgb(149,122,103)" stroke="rgb(149,122,103)" stroke-width="1" opacity="0.9568627450980393" d="M 27.5 35 L 27.5 38 Q 24.5 36.5 27.5 35 Z " /><path fill="rgb(149,122,103)" stroke="rgb(149,122,103)" stroke-width="1" opacity="0.9568627450980393" d="M 29.5 35 L 30.5 37 L 29.5 35 Z " /><path fill="rgb(149,122,103)" stroke="rgb(149,122,103)" stroke-width="1" opacity="0.9568627450980393" d="M 44.5 35 L 45.5 37 L 44.5 35 Z " /><path fill="rgb(149,122,103)" stroke="rgb(149,122,103)" stroke-width="1" opacity="0.9568627450980393" d="M 51.5 35 L 52.5 37 Q 49.7 37.7 51.5 35 Z " /><path fill="rgb(149,122,103)" stroke="rgb(149,122,103)" stroke-width="1" opacity="0.9568627450980393" d="M 47.5 37 L 46.5 39 L 47.5 37 Z " /><path fill="rgb(149,122,103)" stroke="rgb(149,122,103)" stroke-width="1" opacity="0.9568627450980393" d="M 14.5 38 L 15 40.5 L 13.5 48 L 13 41.5 L 14.5 38 Z " /><path fill="rgb(149,122,103)" stroke="rgb(149,122,103)" stroke-width="1" opacity="0.9568627450980393" d="M 10.5 39 L 11 41.5 L 10 41.5 L 10.5 39 Z " /><path fill="rgb(149,122,103)" stroke="rgb(149,122,103)" stroke-width="1" opacity="0.9568627450980393" d="M 28.5 39 L 29.5 41 L 28.5 39 Z " /><path fill="rgb(149,122,103)" stroke="rgb(149,122,103)" stroke-width="1" opacity="0.9568627450980393" d="M 34.5 39 L 36 40.5 L 35.5 43 Q 31 41 34.5 39 Z " /><path fill="rgb(149,122,103)" stroke="rgb(149,122,103)" stroke-width="1" opacity="0.9568627450980393" d="M 11.5 44 L 12 47.5 L 11 47.5 L 11.5 44 Z " /><path fill="rgb(149,122,103)" stroke="rgb(149,122,103)" stroke-width="1" opacity="0.9568627450980393" d="M 18.5 44 L 19.5 46 L 18.5 44 Z " /><path fill="rgb(149,122,103)" stroke="rgb(149,122,103)" stroke-width="1" opacity="0.9568627450980393" d="M 28.5 44 L 29.5 46 L 28.5 45 L 26 46.5 L 28.5 44 Z " /><path fill="rgb(149,122,103)" stroke="rgb(149,122,103)" stroke-width="1" opacity="0.9568627450980393" d="M 49.5 46 L 52 46.5 Q 49.9 49.8 49.5 46 Z " /><path fill="rgb(149,122,103)" stroke="rgb(149,122,103)" stroke-width="1" opacity="0.9568627450980393" d="M 9.5 47 L 10 56.5 L 9 56.5 L 9.5 47 Z " /><path fill="rgb(149,122,103)" stroke="rgb(149,122,103)" stroke-width="1" opacity="0.9568627450980393" d="M 23.5 49 L 24.5 51 L 23.5 49 Z " /><path fill="rgb(149,122,103)" stroke="rgb(149,122,103)" stroke-width="1" opacity="0.9568627450980393" d="M 34.5 49 L 33.5 51 L 34.5 49 Z " /><path fill="rgb(149,122,103)" stroke="rgb(149,122,103)" stroke-width="1" opacity="0.9568627450980393" d="M 56.5 55 L 59 55.5 L 56.5 56 L 56.5 55 Z " /><path fill="rgb(149,122,103)" stroke="rgb(149,122,103)" stroke-width="1" opacity="0.9568627450980393" d="M 51.5 56 L 53 56.5 L 51 57 L 53 60.5 L 51 61 L 50.5 59 L 49 59.5 L 51.5 56 Z " /><path fill="rgb(149,122,103)" stroke="rgb(149,122,103)" stroke-width="1" opacity="0.9568627450980393" d="M 38.5 57 L 38 58.5 L 37.5 60 L 37 58.5 L 38.5 57 Z " /><path fill="rgb(149,122,103)" stroke="rgb(149,122,103)" stroke-width="1" opacity="0.9568627450980393" d="M 40.5 57 Q 45 59 41.5 61 L 40.5 57 Z " /><path fill="rgb(149,122,103)" stroke="rgb(149,122,103)" stroke-width="1" opacity="0.9568627450980393" d="M 12.5 64 L 14.5 67 L 12.5 64 Z " /><path fill="rgb(149,122,103)" stroke="rgb(149,122,103)" stroke-width="1" opacity="0.9568627450980393" d="M 50.5 66 L 49.5 68 L 50.5 66 Z " /><path fill="rgb(149,122,103)" stroke="rgb(149,122,103)" stroke-width="1" opacity="0.9568627450980393" d="M 13.5 69 L 16 69.5 L 13.5 70 L 13.5 69 Z " /><path fill="rgb(149,122,103)" stroke="rgb(149,122,103)" stroke-width="1" opacity="0.9568627450980393" d="M 19.5 71 L 23 71.5 L 20.5 73 L 19.5 71 Z " /><path fill="rgb(149,122,103)" stroke="rgb(149,122,103)" stroke-width="1" opacity="0.9568627450980393" d="M 28.5 72 L 31 72.5 L 28.5 73 L 28.5 72 Z " /><path fill="rgb(149,122,103)" stroke="rgb(149,122,103)" stroke-width="1" opacity="0.9568627450980393" d="M 20.5 75 L 23 75.5 L 20.5 76 L 20.5 75 Z " /></svg>